<?xml version="1.0" encoding="iso-8859-1"?>
<!-- Generator: Adobe Illustrator 17.0.0, SVG Export Plug-In . SVG Version: 6.00 Build 0)  -->
<!DOCTYPE svg PUBLIC "-//W3C//DTD SVG 1.1//EN" "http://www.w3.org/Graphics/SVG/1.1/DTD/svg11.dtd">
<svg version="1.1" id="Layer_1" xmlns="http://www.w3.org/2000/svg" xmlns:xlink="http://www.w3.org/1999/xlink" x="0px" y="0px"
	 width="210px" height="85px" viewBox="0 0 210 85" style="enable-background:new 0 0 210 85;" xml:space="preserve">
<g>
	<g>
		<path style="fill:#E91C33;" d="M87.693,14.258C75.756,1.919,57.72,2.161,46.983,2.215l-4.267,3.616
			c0.379-0.014,0.735-0.021,1.05-0.021c1.108,0,2.212,0.012,3.311,0.04c11.361,0.291,22.168,2.36,31.218,11.893
			c3.693,3.873,8.457,10.75,9.778,21.011h9.8C97.305,27.426,92.641,19.403,87.693,14.258"/>
		<path style="fill:#E91C33;" d="M79.186,70.356c-6.194,5.756-14.923,9.054-24.333,9.054c-12.46,0-16.578-2.218-17.951-4.224
			c-0.845-1.162-1.056-5.386-1.162-8.025c-0.071-1.349-0.142-6.187-0.181-12.614c-0.784,0.469-1.595,0.902-2.438,1.293
			c-0.91,0.423-1.776,0.424-2.679-0.049c-1.34-0.702-2.6-1.475-3.784-2.317c-0.002,9.209-0.036,16.735-0.528,20.867
			c-0.423,3.062-0.95,5.386-3.062,5.808c-0.95,0.211-2.218,0.423-3.168,0.423c-0.633,0-0.845,0.317-0.845,0.633
			c0,0.633,0.528,0.845,1.689,0.845c1.584,0,4.013-0.211,6.124-0.211c2.218-0.106,4.013-0.106,4.224-0.106
			c0.528,0,4.118,0.317,8.764,0.633C44.4,82.683,49.997,83,54.537,83c17.951,0,27.454-7.392,31.995-12.143
			c0.154-0.162,0.306-0.333,0.459-0.501H79.186z"/>
		<path style="fill:#E91C33;" d="M31.779,9.004c0.373,0.482,0.768,0.95,1.114,1.45c1.3,1.876,1.923,3.959,2.007,6.245
			c0.112,3.043-0.411,6.002-0.999,8.961c-0.278,1.399-0.605,2.795-0.483,4.239c0.079,0.935,0.371,1.804,0.886,2.59
			c0.114,0.175,0.274,0.319,0.499,0.576c-0.012-2.112,0.154-4.044,2.118-5.352c-0.047,0.255-0.065,0.41-0.104,0.559
			c-0.391,1.498-0.248,2.964,0.402,4.347c0.63,1.341,1.354,2.64,2.058,3.945c0.637,1.183,1.284,2.366,1.502,3.708
			c0.51,3.139-0.329,5.918-2.373,8.325c-1.579,1.859-3.477,3.322-5.698,4.354c-0.576,0.267-1.123,0.269-1.695-0.031
			c-3.967-2.078-6.9-5.09-8.362-9.38c-1.075-3.155-0.777-6.307,0.24-9.426c0.824-2.526,2.096-4.834,3.468-7.091
			c1.416-2.329,2.873-4.632,4.268-6.972c1.391-2.334,2.061-4.87,1.942-7.598c-0.045-1.034-0.269-2.025-0.707-2.965
			c-0.064-0.138-0.124-0.278-0.186-0.417C31.711,9.048,31.745,9.026,31.779,9.004"/>
	</g>
	<g>
		<path style="fill:#E91C33;" d="M47.921,51.593c0-5.07,0-6.013-0.039-7.074c-0.079-1.14-0.393-1.493-1.493-1.808
			c-0.275-0.079-0.865-0.118-1.376-0.118c-0.354,0-0.59-0.118-0.59-0.354c0-0.236,0.275-0.314,0.786-0.314
			c1.808,0,4.009,0.079,4.991,0.079c1.1,0,8.764,0.039,9.432,0c0.629-0.039,1.179-0.157,1.454-0.197
			c0.197-0.039,0.393-0.157,0.55-0.157c0.197,0,0.236,0.157,0.236,0.314c0,0.236-0.197,0.629-0.275,2.162
			c-0.039,0.354-0.118,1.808-0.197,2.201c-0.039,0.157-0.118,0.55-0.393,0.55c-0.236,0-0.275-0.157-0.275-0.432
			c0-0.236-0.039-0.825-0.236-1.218c-0.275-0.589-0.55-1.061-2.28-1.218c-0.59-0.079-4.716-0.157-5.424-0.157
			c-0.157,0-0.236,0.118-0.236,0.315v8.253c0,0.197,0.039,0.354,0.236,0.354c0.786,0,5.266,0,6.052-0.079
			c0.825-0.079,1.336-0.157,1.651-0.511c0.275-0.236,0.393-0.432,0.55-0.432s0.275,0.157,0.275,0.354
			c0,0.197-0.079,0.747-0.275,2.437c-0.079,0.668-0.157,2.004-0.157,2.24c0,0.275-0.039,0.747-0.354,0.747
			c-0.236,0-0.314-0.118-0.314-0.275c-0.039-0.354-0.039-0.786-0.118-1.218c-0.197-0.668-0.629-1.179-1.926-1.297
			c-0.629-0.079-4.559-0.157-5.424-0.157c-0.157,0-0.197,0.157-0.197,0.354v2.673c0,1.14-0.039,3.97,0,4.952
			c0.079,2.279,1.14,2.79,4.677,2.79c0.904,0,2.358-0.039,3.262-0.432c0.865-0.393,1.258-1.1,1.493-2.476
			c0.079-0.354,0.157-0.511,0.393-0.511c0.275,0,0.314,0.432,0.314,0.786c0,0.747-0.275,3.026-0.472,3.694
			c-0.236,0.865-0.55,0.865-1.847,0.865c-2.594,0-4.677-0.039-6.367-0.118c-1.69-0.039-2.987-0.079-4.009-0.079
			c-0.393,0-1.14,0.039-1.965,0.039c-0.825,0.039-1.69,0.078-2.397,0.078c-0.432,0-0.668-0.118-0.668-0.354
			c0-0.157,0.118-0.354,0.55-0.354c0.511,0,0.904-0.039,1.218-0.118c0.707-0.157,0.904-0.786,1.022-1.768
			c0.157-1.415,0.157-4.048,0.157-7.114V51.593z"/>
		<path style="fill:#E91C33;" d="M69.813,51.593c0-5.07,0-6.013-0.039-7.074c-0.079-1.14-0.393-1.493-1.493-1.808
			c-0.275-0.079-0.865-0.118-1.376-0.118c-0.354,0-0.59-0.118-0.59-0.354c0-0.236,0.275-0.314,0.786-0.314
			c1.808,0,4.009,0.079,4.991,0.079c1.1,0,8.764,0.039,9.432,0c0.629-0.039,1.179-0.157,1.454-0.197
			c0.197-0.039,0.393-0.157,0.55-0.157c0.197,0,0.236,0.157,0.236,0.314c0,0.236-0.197,0.629-0.275,2.162
			c-0.039,0.354-0.118,1.808-0.197,2.201c-0.039,0.157-0.118,0.55-0.393,0.55c-0.236,0-0.275-0.157-0.275-0.432
			c0-0.236-0.039-0.825-0.236-1.218c-0.275-0.589-0.55-1.061-2.28-1.218c-0.59-0.079-4.716-0.157-5.424-0.157
			c-0.157,0-0.236,0.118-0.236,0.315v8.253c0,0.197,0.039,0.354,0.236,0.354c0.786,0,5.266,0,6.052-0.079
			c0.825-0.079,1.336-0.157,1.651-0.511c0.275-0.236,0.393-0.432,0.55-0.432c0.157,0,0.275,0.157,0.275,0.354
			c0,0.197-0.079,0.747-0.275,2.437c-0.079,0.668-0.157,2.004-0.157,2.24c0,0.275-0.039,0.747-0.354,0.747
			c-0.236,0-0.314-0.118-0.314-0.275c-0.039-0.354-0.039-0.786-0.118-1.218c-0.197-0.668-0.629-1.179-1.926-1.297
			c-0.629-0.079-4.559-0.157-5.424-0.157c-0.157,0-0.197,0.157-0.197,0.354v2.673c0,1.14-0.039,3.97,0,4.952
			c0.079,2.279,1.14,2.79,4.677,2.79c0.904,0,2.358-0.039,3.262-0.432c0.865-0.393,1.258-1.1,1.493-2.476
			c0.079-0.354,0.157-0.511,0.393-0.511c0.275,0,0.314,0.432,0.314,0.786c0,0.747-0.275,3.026-0.472,3.694
			c-0.236,0.865-0.55,0.865-1.847,0.865c-2.594,0-4.677-0.039-6.367-0.118c-1.69-0.039-2.987-0.079-4.009-0.079
			c-0.393,0-1.14,0.039-1.965,0.039c-0.825,0.039-1.69,0.078-2.397,0.078c-0.432,0-0.668-0.118-0.668-0.354
			c0-0.157,0.118-0.354,0.55-0.354c0.511,0,0.904-0.039,1.218-0.118c0.707-0.157,0.904-0.786,1.022-1.768
			c0.157-1.415,0.157-4.048,0.157-7.114V51.593z"/>
		<path style="fill:#E91C33;" d="M91.705,51.593c0-5.07,0-6.013-0.039-7.074c-0.079-1.14-0.393-1.493-1.493-1.808
			c-0.275-0.079-0.865-0.118-1.376-0.118c-0.354,0-0.59-0.118-0.59-0.354c0-0.236,0.275-0.314,0.786-0.314
			c1.808,0,4.009,0.079,4.991,0.079c1.415,0,4.166-0.079,5.738-0.079c4.323,0,5.895,1.415,6.446,1.886
			c0.747,0.707,1.729,2.201,1.729,4.009c0,4.716-3.773,8.096-8.686,8.096c-0.157,0-0.865,0-1.022-0.039
			c-0.197,0-0.432-0.118-0.432-0.354c0-0.275,0.393-0.432,1.14-0.432c1.926,0,4.638-2.004,4.638-5.423
			c0-1.1-0.118-3.301-2.044-4.952c-1.258-1.1-2.673-1.258-3.459-1.258c-0.511,0-1.179,0.039-1.493,0.157
			c-0.197,0.079-0.275,0.275-0.275,0.629v13.245c0,3.066,0,5.699,0.157,7.153c0.118,0.943,0.314,1.572,1.336,1.729
			c0.511,0.079,1.258,0.118,1.769,0.118c0.393,0,0.55,0.196,0.55,0.354c0,0.236-0.275,0.354-0.629,0.354
			c-2.319,0-4.756-0.118-5.659-0.118c-0.786,0-2.987,0.118-4.363,0.118c-0.432,0-0.668-0.118-0.668-0.354
			c0-0.157,0.118-0.354,0.55-0.354c0.511,0,0.904-0.039,1.218-0.118c0.707-0.157,0.904-0.786,1.022-1.768
			c0.157-1.415,0.157-4.048,0.157-7.114V51.593z"/>
		<path style="fill:#E91C33;" d="M114.658,58.786c-0.196,0-0.236,0.039-0.314,0.236l-1.847,4.481
			c-0.354,0.825-0.511,1.65-0.511,2.044c0,0.589,0.314,0.943,1.376,0.943h0.511c0.432,0,0.511,0.157,0.511,0.354
			c0,0.275-0.196,0.354-0.55,0.354c-1.14,0-2.751-0.118-3.851-0.118c-0.354,0-2.201,0.118-4.009,0.118
			c-0.432,0-0.629-0.078-0.629-0.354c0-0.196,0.118-0.354,0.393-0.354c0.314,0,0.707-0.039,1.022-0.039
			c1.572-0.236,2.162-1.258,2.869-2.948l9.039-21.027c0.393-0.943,0.668-1.336,1.022-1.336c0.511,0,0.668,0.314,1.022,1.061
			c0.825,1.847,6.603,15.524,8.804,20.594c1.336,3.026,2.319,3.459,2.948,3.577c0.511,0.079,0.904,0.118,1.297,0.118
			c0.314,0,0.472,0.118,0.472,0.354c0,0.275-0.197,0.354-1.493,0.354c-1.218,0-3.734,0-6.642-0.078
			c-0.629-0.039-1.022-0.039-1.022-0.275c0-0.196,0.079-0.314,0.432-0.354c0.236-0.039,0.472-0.354,0.314-0.747l-2.673-6.721
			c-0.079-0.196-0.196-0.236-0.354-0.236H114.658z M122.047,56.938c0.157,0,0.196-0.079,0.157-0.196l-3.262-8.489
			c-0.039-0.118-0.079-0.314-0.157-0.314c-0.118,0-0.157,0.196-0.196,0.314l-3.341,8.45c-0.079,0.157,0,0.236,0.118,0.236H122.047z"
			/>
		<path style="fill:#E91C33;" d="M140.401,58.511c0-1.808-0.314-2.515-0.786-3.498c-0.236-0.511-4.952-7.86-6.171-9.629
			c-0.865-1.218-1.572-2.004-2.24-2.358c-0.432-0.236-1.022-0.432-1.454-0.432c-0.275,0-0.511-0.118-0.511-0.354
			c0-0.236,0.236-0.314,0.668-0.314c0.59,0,3.183,0.079,4.323,0.079c0.747,0,2.358-0.079,3.93-0.079
			c0.314,0,0.511,0.079,0.511,0.314c0,0.275-0.236,0.275-0.786,0.432c-0.275,0.079-0.472,0.236-0.472,0.511
			c0,0.275,0.157,0.668,0.432,1.14c0.629,1.022,5.148,8.843,5.738,9.786c0.432-0.786,4.638-7.939,5.149-8.961
			c0.354-0.747,0.511-1.336,0.511-1.769c0-0.314-0.157-0.629-0.747-0.747c-0.314-0.079-0.629-0.118-0.629-0.393
			c0-0.236,0.197-0.314,0.59-0.314c1.14,0,2.358,0.079,3.38,0.079c0.747,0,3.026-0.079,3.694-0.079c0.393,0,0.629,0.079,0.629,0.275
			c0,0.236-0.275,0.393-0.668,0.393c-0.354,0-0.983,0.157-1.494,0.393c-0.747,0.354-1.061,0.668-1.808,1.572
			c-1.14,1.337-6.092,9.275-6.721,10.69c-0.511,1.218-0.432,2.24-0.432,3.341v2.673c0,0.55,0,1.926,0.079,3.341
			c0.078,0.982,0.393,1.611,1.415,1.768c0.511,0.079,1.258,0.118,1.729,0.118c0.393,0,0.589,0.196,0.589,0.354
			c0,0.236-0.275,0.354-0.747,0.354c-2.161,0-4.48-0.118-5.424-0.118c-0.865,0-3.183,0.118-4.48,0.118
			c-0.472,0-0.747-0.078-0.747-0.354c0-0.157,0.157-0.354,0.55-0.354c0.472,0,0.904-0.039,1.218-0.118
			c0.708-0.157,0.983-0.786,1.061-1.768c0.118-1.415,0.118-2.791,0.118-3.341V58.511z"/>
		<path style="fill:#E91C33;" d="M160.603,58.786c-0.196,0-0.236,0.039-0.314,0.236l-1.847,4.481
			c-0.354,0.825-0.511,1.65-0.511,2.044c0,0.589,0.314,0.943,1.376,0.943h0.511c0.432,0,0.511,0.157,0.511,0.354
			c0,0.275-0.196,0.354-0.55,0.354c-1.14,0-2.751-0.118-3.852-0.118c-0.354,0-2.201,0.118-4.009,0.118
			c-0.432,0-0.629-0.078-0.629-0.354c0-0.196,0.118-0.354,0.393-0.354c0.314,0,0.708-0.039,1.022-0.039
			c1.572-0.236,2.161-1.258,2.869-2.948l9.039-21.027c0.393-0.943,0.668-1.336,1.022-1.336c0.511,0,0.668,0.314,1.022,1.061
			c0.825,1.847,6.603,15.524,8.804,20.594c1.336,3.026,2.319,3.459,2.948,3.577c0.511,0.079,0.904,0.118,1.297,0.118
			c0.314,0,0.472,0.118,0.472,0.354c0,0.275-0.197,0.354-1.493,0.354c-1.219,0-3.734,0-6.642-0.078
			c-0.629-0.039-1.022-0.039-1.022-0.275c0-0.196,0.079-0.314,0.432-0.354c0.236-0.039,0.472-0.354,0.314-0.747l-2.673-6.721
			c-0.079-0.196-0.196-0.236-0.354-0.236H160.603z M167.992,56.938c0.157,0,0.196-0.079,0.157-0.196l-3.262-8.489
			c-0.039-0.118-0.079-0.314-0.157-0.314c-0.118,0-0.157,0.196-0.196,0.314l-3.341,8.45c-0.079,0.157,0,0.236,0.118,0.236H167.992z"
			/>
		<path style="fill:#E91C33;" d="M186.111,62.637c0.078,2.594,0.511,3.38,1.179,3.616c0.59,0.197,1.258,0.236,1.808,0.236
			c0.393,0,0.589,0.157,0.589,0.354c0,0.275-0.314,0.354-0.786,0.354c-2.24,0-3.852-0.118-4.48-0.118
			c-0.314,0-1.965,0.118-3.734,0.118c-0.472,0-0.786-0.039-0.786-0.354c0-0.196,0.236-0.354,0.551-0.354
			c0.472,0,1.1-0.039,1.572-0.157c0.904-0.236,1.022-1.14,1.061-4.048l0.314-19.808c0-0.668,0.236-1.14,0.589-1.14
			c0.432,0,0.904,0.511,1.494,1.1c0.432,0.432,5.62,5.738,10.651,10.651c2.358,2.319,6.957,7.035,7.467,7.507h0.157l-0.354-14.856
			c-0.039-2.044-0.354-2.633-1.179-2.948c-0.511-0.197-1.336-0.197-1.808-0.197c-0.432,0-0.551-0.157-0.551-0.354
			c0-0.275,0.354-0.314,0.865-0.314c1.808,0,3.655,0.079,4.402,0.079c0.393,0,1.69-0.079,3.38-0.079
			c0.472,0,0.786,0.039,0.786,0.314c0,0.197-0.196,0.354-0.589,0.354c-0.354,0-0.629,0-1.061,0.118
			c-0.943,0.275-1.218,0.865-1.258,2.751l-0.393,21.066c0,0.747-0.275,1.061-0.55,1.061c-0.59,0-1.061-0.354-1.415-0.708
			c-2.162-2.004-6.485-6.131-10.101-9.629c-3.773-3.616-7.428-7.664-8.096-8.253h-0.118L186.111,62.637z"/>
	</g>
	<g>
		<path style="fill:#E91C33;" d="M92.087,74.749c0-2.286,0-2.701-0.035-3.169c-0.034-0.502-0.121-0.744-0.623-0.814
			c-0.121-0.017-0.381-0.034-0.519-0.034c-0.052,0-0.121-0.069-0.121-0.121c0-0.087,0.069-0.121,0.242-0.121
			c0.693,0,1.645,0.034,1.732,0.034c0.294,0,3.601,0.017,3.948,0c0.294-0.018,0.554-0.018,0.692-0.069
			c0.086-0.017,0.156-0.087,0.208-0.087c0.069,0,0.104,0.069,0.104,0.138c0,0.104-0.069,0.277-0.121,0.693
			c-0.018,0.138-0.034,0.796-0.069,0.97c-0.017,0.069-0.069,0.156-0.138,0.156c-0.069,0-0.121-0.069-0.121-0.173
			c0-0.121-0.052-0.363-0.139-0.554c-0.087-0.19-0.45-0.433-1.039-0.433l-2.493-0.035c-0.087,0-0.121,0.035-0.121,0.156v4.017
			c0,0.086,0,0.138,0.104,0.138l2.078-0.017c0.26,0,0.485,0,0.692-0.018c0.364-0.035,0.571-0.086,0.71-0.26
			c0.069-0.086,0.139-0.156,0.191-0.156c0.069,0,0.086,0.052,0.086,0.121c0,0.087-0.104,0.329-0.138,0.814
			c-0.035,0.295-0.052,0.883-0.052,0.987c0,0.139-0.035,0.295-0.139,0.295c-0.087,0-0.104-0.069-0.104-0.139
			c-0.017-0.156-0.034-0.363-0.104-0.537c-0.069-0.208-0.312-0.398-0.779-0.468c-0.381-0.052-2.182-0.034-2.442-0.034
			c-0.086,0-0.104,0.034-0.104,0.138v1.177c0,1.454,0,2.614,0.069,3.186c0.052,0.433,0.138,0.71,0.554,0.779
			c0.225,0.035,0.554,0.069,0.692,0.069c0.086,0,0.121,0.069,0.121,0.121c0,0.069-0.069,0.121-0.242,0.121
			c-0.848,0-1.835-0.052-1.905-0.052c-0.086,0-1.039,0.052-1.506,0.052c-0.156,0-0.242-0.035-0.242-0.121
			c0-0.052,0.035-0.121,0.121-0.121c0.138,0,0.329-0.052,0.468-0.069c0.294-0.052,0.329-0.346,0.398-0.779
			c0.086-0.606,0.086-1.766,0.086-3.186V74.749z"/>
		<path style="fill:#E91C33;" d="M105.661,70.282c3.428,0,6.025,2.095,6.025,5.523c0,3.29-2.442,6.009-6.112,6.009
			c-4.173,0-5.957-3.134-5.957-5.783C99.618,73.658,101.453,70.282,105.661,70.282 M106.007,81.208c1.368,0,4.121-0.728,4.121-4.987
			c0-3.532-2.148-5.385-4.554-5.385c-2.545,0-4.381,1.593-4.381,4.796C101.194,79.061,103.254,81.208,106.007,81.208"/>
		<path style="fill:#E91C33;" d="M114.559,74.749c0-2.286,0-2.701-0.035-3.169c-0.034-0.467-0.121-0.744-0.623-0.814
			c-0.121-0.017-0.381-0.034-0.519-0.034c-0.052,0-0.121-0.069-0.121-0.121c0-0.087,0.069-0.121,0.242-0.121
			c0.693,0,1.61,0.034,1.749,0.034c0.138,0,1.091-0.034,1.541-0.034c0.173,0,0.26,0.034,0.26,0.121c0,0.052-0.069,0.121-0.138,0.121
			c-0.104,0-0.191,0-0.381,0.034c-0.398,0.069-0.485,0.329-0.519,0.814c-0.034,0.467-0.034,0.883-0.034,3.169v2.061
			c0,2.13,0.467,3.013,1.125,3.601c0.745,0.675,1.403,0.796,2.268,0.796c0.935,0,1.835-0.416,2.355-1.039
			c0.71-0.849,0.866-2.061,0.866-3.567v-1.852c0-2.286-0.017-2.701-0.035-3.169c-0.017-0.467-0.104-0.744-0.606-0.814
			c-0.121-0.017-0.381-0.034-0.519-0.034c-0.069,0-0.121-0.069-0.121-0.121c0-0.087,0.069-0.121,0.242-0.121
			c0.675,0,1.558,0.034,1.645,0.034c0.104,0,0.831-0.034,1.282-0.034c0.173,0,0.242,0.034,0.242,0.121
			c0,0.052-0.052,0.121-0.121,0.121c-0.104,0-0.191,0-0.381,0.034c-0.415,0.087-0.502,0.329-0.537,0.814
			c-0.034,0.467-0.017,0.883-0.017,3.169v1.575c0,1.593-0.208,3.377-1.42,4.416c-1.108,0.952-2.285,1.073-3.186,1.073
			c-0.502,0-2.095-0.035-3.169-1.039c-0.744-0.692-1.333-1.714-1.333-3.861V74.749z"/>
		<path style="fill:#E91C33;" d="M128.651,79.615c0.035,1.212,0.173,1.575,0.589,1.68c0.277,0.069,0.623,0.086,0.762,0.086
			c0.069,0,0.121,0.052,0.121,0.121c0,0.086-0.104,0.121-0.277,0.121c-0.866,0-1.472-0.052-1.61-0.052
			c-0.138,0-0.779,0.052-1.472,0.052c-0.156,0-0.242-0.017-0.242-0.121c0-0.069,0.052-0.121,0.121-0.121
			c0.121,0,0.398-0.017,0.623-0.086c0.381-0.104,0.433-0.502,0.433-1.835v-8.432c0-0.589,0.086-0.745,0.208-0.745
			c0.173,0,0.433,0.294,0.589,0.45c0.242,0.242,2.459,2.597,4.814,5.021c1.506,1.558,3.134,3.307,3.602,3.792l-0.156-7.377
			c-0.018-0.952-0.104-1.281-0.572-1.368c-0.277-0.052-0.623-0.069-0.744-0.069c-0.104,0-0.121-0.087-0.121-0.138
			c0-0.087,0.121-0.104,0.294-0.104c0.692,0,1.42,0.034,1.593,0.034c0.173,0,0.675-0.034,1.299-0.034
			c0.156,0,0.277,0.017,0.277,0.104c0,0.052-0.069,0.138-0.173,0.138c-0.069,0-0.19,0-0.364,0.034
			c-0.502,0.104-0.537,0.398-0.537,1.281l-0.035,8.623c0,0.97-0.018,1.056-0.121,1.056c-0.156,0-0.312-0.121-1.16-0.9
			c-0.156-0.138-2.355-2.303-3.965-3.982c-1.766-1.853-3.48-3.653-3.948-4.173L128.651,79.615z"/>
		<path style="fill:#E91C33;" d="M142.086,74.749c0-2.286,0-2.701-0.035-3.169c-0.034-0.502-0.121-0.744-0.623-0.814
			c-0.121-0.017-0.381-0.034-0.519-0.034c-0.052,0-0.121-0.069-0.121-0.121c0-0.086,0.069-0.121,0.242-0.121
			c0.693,0,1.68,0.035,1.766,0.035c0.173,0,1.143-0.035,2.043-0.035c1.524,0,4.311-0.139,6.112,1.68
			c0.762,0.762,1.489,1.991,1.489,3.74c0,1.853-0.797,3.273-1.645,4.139c-0.658,0.675-2.026,1.697-4.623,1.697
			c-0.658,0-1.472-0.052-2.13-0.086c-0.658-0.052-1.178-0.087-1.247-0.087c-0.035,0-0.312,0.017-0.623,0.017
			c-0.312,0.018-0.675,0.035-0.918,0.035c-0.156,0-0.242-0.035-0.242-0.121c0-0.052,0.035-0.121,0.121-0.121
			c0.138,0,0.329-0.035,0.468-0.069c0.294-0.069,0.329-0.346,0.398-0.779c0.086-0.606,0.086-1.766,0.086-3.186V74.749z
			 M143.471,76.342c0,1.558,0,2.926,0.017,3.203c0.018,0.364,0.052,0.901,0.173,1.056c0.19,0.277,0.727,0.589,2.528,0.589
			c1.402,0,2.649-0.467,3.567-1.333c0.797-0.744,1.195-2.147,1.195-3.498c0-1.87-0.814-3.065-1.438-3.688
			c-1.437-1.454-3.117-1.645-4.934-1.645c-0.295,0-0.779,0.052-0.918,0.104c-0.139,0.052-0.191,0.121-0.191,0.294V76.342z"/>
		<path style="fill:#E91C33;" d="M158.256,70.784c0.19-0.485,0.26-0.571,0.364-0.571c0.156,0,0.208,0.208,0.363,0.537
			c0.277,0.623,2.718,6.701,3.653,8.934c0.554,1.316,0.97,1.506,1.299,1.61c0.225,0.069,0.45,0.086,0.606,0.086
			c0.086,0,0.191,0.035,0.191,0.121c0,0.086-0.173,0.121-0.347,0.121c-0.225,0-1.351,0-2.407-0.035
			c-0.295-0.017-0.537-0.017-0.537-0.104c0-0.069,0.035-0.069,0.104-0.104c0.087-0.035,0.242-0.156,0.138-0.398l-1.368-3.376
			c-0.034-0.069-0.052-0.086-0.139-0.086h-3.515c-0.069,0-0.121,0.034-0.156,0.121l-0.866,2.355
			c-0.138,0.364-0.225,0.728-0.225,0.987c0,0.295,0.26,0.398,0.519,0.398h0.138c0.121,0,0.156,0.052,0.156,0.121
			c0,0.086-0.087,0.121-0.225,0.121c-0.364,0-1.195-0.052-1.368-0.052c-0.156,0-0.918,0.052-1.541,0.052
			c-0.191,0-0.294-0.035-0.294-0.121c0-0.069,0.069-0.121,0.138-0.121c0.104,0,0.329-0.017,0.45-0.035
			c0.692-0.086,0.987-0.606,1.281-1.351L158.256,70.784z M159.953,76.913c0.069,0,0.069-0.035,0.052-0.104l-1.506-4.034
			c-0.087-0.225-0.173-0.225-0.26,0l-1.42,4.034c-0.017,0.069,0,0.104,0.052,0.104H159.953z"/>
		<path style="fill:#E91C33;" d="M168.956,77.346c0,1.42,0,2.58,0.069,3.186c0.052,0.433,0.121,0.71,0.589,0.779
			c0.208,0.034,0.554,0.069,0.693,0.069c0.104,0,0.121,0.069,0.121,0.121c0,0.069-0.069,0.121-0.242,0.121
			c-0.831,0-1.801-0.052-1.887-0.052c-0.069,0-1.125,0.052-1.576,0.052c-0.173,0-0.243-0.034-0.243-0.121
			c0-0.052,0.035-0.104,0.121-0.104c0.139,0,0.312-0.035,0.45-0.069c0.312-0.069,0.398-0.364,0.45-0.797
			c0.069-0.606,0.069-1.766,0.069-3.186v-6.181l-2.199,0.034c-0.952,0.017-1.316,0.121-1.541,0.468
			c-0.173,0.26-0.191,0.363-0.242,0.468c-0.035,0.121-0.087,0.138-0.156,0.138c-0.035,0-0.104-0.035-0.104-0.121
			c0-0.156,0.294-1.472,0.329-1.593c0.017-0.086,0.104-0.277,0.156-0.277c0.104,0,0.26,0.121,0.675,0.173
			c0.433,0.052,1.022,0.069,1.195,0.069h5.749c0.502,0,0.848-0.034,1.091-0.069c0.225-0.035,0.363-0.069,0.433-0.069
			c0.069,0,0.069,0.087,0.069,0.173c0,0.45-0.052,1.506-0.052,1.68c0,0.121-0.069,0.19-0.138,0.19c-0.069,0-0.104-0.052-0.121-0.26
			l-0.018-0.156c-0.052-0.45-0.381-0.779-1.835-0.814l-1.905-0.034V77.346z"/>
		<path style="fill:#E91C33;" d="M177.577,77.346c0,1.42,0,2.58,0.069,3.186c0.052,0.433,0.104,0.71,0.554,0.779
			c0.225,0.034,0.554,0.069,0.693,0.069c0.087,0,0.121,0.069,0.121,0.121c0,0.069-0.069,0.121-0.242,0.121
			c-0.849,0-1.835-0.052-1.905-0.052c-0.086,0-1.039,0.052-1.506,0.052c-0.156,0-0.242-0.034-0.242-0.121
			c0-0.052,0.034-0.121,0.121-0.121c0.139,0,0.33-0.035,0.468-0.069c0.295-0.069,0.347-0.346,0.398-0.779
			c0.069-0.606,0.086-1.766,0.086-3.186v-2.597c0-2.286,0-2.701-0.034-3.168c-0.034-0.502-0.156-0.728-0.485-0.797
			c-0.173-0.034-0.364-0.052-0.467-0.052c-0.069,0-0.122-0.069-0.122-0.121c0-0.087,0.069-0.121,0.243-0.121
			c0.502,0,1.455,0.034,1.541,0.034c0.069,0,1.056-0.034,1.524-0.034c0.173,0,0.242,0.034,0.242,0.121
			c0,0.052-0.069,0.121-0.121,0.121c-0.104,0-0.208,0-0.381,0.035c-0.415,0.086-0.502,0.294-0.537,0.814
			c-0.017,0.467-0.017,0.883-0.017,3.168V77.346z"/>
		<path style="fill:#E91C33;" d="M186.995,70.282c3.429,0,6.026,2.095,6.026,5.523c0,3.29-2.442,6.009-6.113,6.009
			c-4.173,0-5.956-3.134-5.956-5.783C180.952,73.658,182.788,70.282,186.995,70.282 M187.342,81.208
			c1.368,0,4.121-0.728,4.121-4.987c0-3.532-2.147-5.385-4.554-5.385c-2.545,0-4.38,1.593-4.38,4.796
			C182.528,79.061,184.589,81.208,187.342,81.208"/>
		<path style="fill:#E91C33;" d="M196.846,79.615c0.034,1.212,0.173,1.575,0.589,1.68c0.277,0.069,0.623,0.086,0.762,0.086
			c0.069,0,0.121,0.052,0.121,0.121c0,0.086-0.104,0.121-0.277,0.121c-0.866,0-1.472-0.052-1.61-0.052
			c-0.139,0-0.779,0.052-1.472,0.052c-0.156,0-0.242-0.017-0.242-0.121c0-0.069,0.052-0.121,0.121-0.121
			c0.121,0,0.398-0.017,0.623-0.086c0.381-0.104,0.433-0.502,0.433-1.835v-8.432c0-0.589,0.086-0.745,0.208-0.745
			c0.173,0,0.432,0.294,0.588,0.45c0.242,0.242,2.459,2.597,4.814,5.021c1.506,1.558,3.133,3.307,3.601,3.792l-0.156-7.377
			c-0.017-0.952-0.104-1.281-0.571-1.368c-0.277-0.052-0.623-0.069-0.744-0.069c-0.104,0-0.121-0.087-0.121-0.138
			c0-0.087,0.121-0.104,0.295-0.104c0.693,0,1.42,0.034,1.593,0.034c0.173,0,0.676-0.034,1.298-0.034
			c0.156,0,0.277,0.017,0.277,0.104c0,0.052-0.069,0.138-0.173,0.138c-0.069,0-0.191,0-0.364,0.034
			c-0.502,0.104-0.537,0.398-0.537,1.281l-0.034,8.623c0,0.97-0.017,1.056-0.121,1.056c-0.156,0-0.311-0.121-1.16-0.9
			c-0.156-0.138-2.355-2.303-3.965-3.982c-1.767-1.853-3.48-3.653-3.948-4.173L196.846,79.615z"/>
		<path style="fill:#E91C33;" d="M44.861,2.214C23.603,2.568,3.753,10.664,1.904,13.347c-1.914,2.779,0,3.6,0,3.6
			C12.794,6.369,42.71,5.832,42.71,5.832l4.399-3.618H44.861z"/>
	</g>
</g>
</svg>
